<svg width="32" height="32" viewBox="0 0 32 32" fill="none" xmlns="http://www.w3.org/2000/svg">
  <!-- Gradient background -->
  <rect width="32" height="32" rx="8" fill="url(#paint0_linear)" />
  
  <!-- Abstract design elements -->
  <path d="M10 8L22 8C23.1046 8 24 8.89543 24 10V22C24 23.1046 23.1046 24 22 24H10C8.89543 24 8 23.1046 8 22V10C8 8.89543 8.89543 8 10 8Z" stroke="white" stroke-width="2" stroke-linecap="round" />
  <circle cx="20" cy="12" r="2" fill="#FFD166" />
  <path d="M16 17C16 18.6569 14.6569 20 13 20C11.3431 20 10 18.6569 10 17C10 15.3431 11.3431 14 13 14C14.6569 14 16 15.3431 16 17Z" fill="#06D6A0" />
  <path d="M22 17L17 22" stroke="white" stroke-width="2" stroke-linecap="round" />
  
  <!-- Gradient definition -->
  <defs>
    <linearGradient id="paint0_linear" x1="0" y1="0" x2="32" y2="32" gradientUnits="userSpaceOnUse">
      <stop stop-color="#6C63FF" />
      <stop offset="1" stop-color="#FF6584" />
    </linearGradient>
  </defs>
</svg> 